<?xml version="1.0" encoding="UTF-8"?>
<svg version="1.1" width="310" height="310" viewBox="140 140 310 310" xmlns="http://www.w3.org/2000/svg">
  <path
     fill="#967373"
     d="m 376,411.95577 c 45.92242,-15.16143 59.96275,-71.80921 26.21123,-105.75304 -45.21503,-45.47265 -120.74328,-3.6295 -106.77523,59.15419 7.82795,35.18517 46.82117,57.73915 80.564,46.59885 z M 350.40671,394.01074 C 313.8372,386.3905 301.30866,342.17551 328.841,317.90227 364.70669,286.28213 418.89635,329.60351 395.25965,371 c -9.42705,16.51021 -28.67075,26.38274 -44.85294,23.01074 z m -84.06841,9.68133 c 8.29335,-6.32776 8.1617,-5.42681 8.1617,-55.85593 v -44.66386 l -3.04159,-4.32765 c -6.3574,-9.04548 -4.89388,-8.80945 -54.74053,-8.82818 -63.34853,-0.0238 -59.00262,-4.03777 -59.53046,54.98355 -0.41084,45.93949 -0.41084,48.99742 6.12895,55.7274 5.66995,6.15116 5.65854,6.14992 54.7627,5.95215 L 262.65814,406.5 Z m -86.49633,-17.36368 c -2.09951,-0.55667 -2.47874,-9.77752 -1.99837,-48.59018 l 0.34359,-27.7618 38.15641,0.2618 38.1564,0.26179 0.26246,36.88253 c 0.18779,26.39067 -0.0604,37.27152 -0.87245,38.25 -1.09401,1.31821 -69.28394,1.95901 -74.04804,0.69586 z m 2.44921,-118.03822 c 6.39278,-3.67738 7.20882,-7.18294 7.20882,-30.96783 0,-24.42305 -0.0536,-24.59142 -9.45201,-29.70212 l -5.29583,-2.87978 0.56677,-4.78553 c 3.93702,-33.2419 47.75572,-46.3146 70.81585,-21.12692 10.58231,11.55865 14.06967,25.37332 7.1733,28.41599 -9.52418,4.20206 -11.07193,8.27514 -11.25268,29.61287 -0.19131,22.58368 1.62124,28.18087 10.4446,32.25311 9.03826,4.17142 19.08147,1.10701 23.31544,-7.11408 3.02032,-5.86454 2.82063,-60.52901 -0.26118,-71.49588 -10.11764,-36.00453 -50.23295,-55.45183 -83.30579,-40.38541 -18.59631,8.47159 -30.09688,21.42992 -35.39846,39.88541 -2.43251,8.46787 -3.85035,57.06982 -1.93091,66.18924 2.7031,12.84259 15.9229,18.68694 27.37208,12.10093 z m 221.8367,-2.70285 c 11.52077,-4.8264 12.31849,-8.52963 12.29717,-57.08732 -0.0193,-43.98376 -0.29288,-46.81261 -5.07714,-52.49838 C 405.3925,148.92402 405.97509,149 357.66196,149 c -50.7705,0 -51.33001,0.10856 -57.17173,11.09267 -1.73753,3.26705 -2.39307,89.77163 -0.71206,93.9637 1.43235,3.57197 6.0674,8.87815 9.67921,11.08071 4.08525,2.49126 88.83638,2.89432 94.6705,0.45024 z M 319.66667,246.33333 C 319.3,245.96667 319,228.41667 319,207.33333 V 169 h 38.5 38.5 v 35.875 c 0,19.73125 -0.28125,37.28125 -0.625,39 L 394.75,247 h -37.20833 c -20.46459,0 -37.50834,-0.3 -37.875,-0.66667 z"
  />
</svg>
